<?xml version="1.0"?><svg width="640" height="480" xmlns="http://www.w3.org/2000/svg"><title>Swim Party Logo</title><g><title>Layer 1</title><g id="svg_15"><title>swim logo retro pool</title><ellipse id="svg_17" ry="167.999972" rx="169.499981" cy="230.000008" cx="315.000019" fill="#003f7f"/><ellipse id="svg_18" ry="147.999996" rx="151.499998" cy="229.000004" cx="316.500005" fill="#ffffff"/><path id="svg_19" fill="#003f7f" d="m467.959137,286.778107c-6.625732,0 -12.939819,-1.197571 -18.603058,-3.266113c-5.783569,-2.108154 -12.338226,-3.382446 -19.182892,-3.382446c-6.869385,0 -13.424072,1.276764 -19.207672,3.382446c-5.663208,2.068542 -11.977325,3.266113 -18.602966,3.266113s-12.964417,-1.197571 -18.603027,-3.266113c-5.879181,-2.108154 -12.433899,-3.382446 -19.207611,-3.382446c-6.844666,0 -13.399353,1.276764 -19.207581,3.382446c-5.63855,2.068542 -12.048309,3.266113 -18.602997,3.266113c-6.625671,0 -12.939789,-1.197571 -18.652405,-3.266113c-5.808228,-2.108154 -12.338257,-3.382446 -19.133575,-3.382446c-6.844666,0 -13.399353,1.276764 -19.207581,3.382446c-5.63855,2.068542 -12.04834,3.266113 -18.677017,3.266113c-6.530014,0 -12.939804,-1.197571 -18.578384,-3.266113c-5.808228,-2.108154 -12.36293,-3.382446 -19.207581,-3.382446c-6.795303,0 -13.325317,1.276764 -19.13356,3.382446c-5.734222,2.068542 -12.048309,3.266113 -18.677063,3.266113l0,-22.405121c6.625656,0 12.939758,-1.217407 18.677063,-3.209229c5.808243,-2.165039 12.338257,-3.441803 19.13356,-3.441803c6.84465,0 13.399353,1.276764 19.207581,3.441803c5.63858,1.991821 12.04837,3.209229 18.578384,3.209229c6.62561,0 13.038467,-1.217407 18.677017,-3.209229c5.808228,-2.165039 12.362915,-3.441803 19.207581,-3.441803c6.795319,0 13.325348,1.276764 19.133575,3.441803c5.712616,1.991821 12.023621,3.209229 18.652405,3.209229c6.554688,0 12.964447,-1.217407 18.602997,-3.209229c5.808228,-2.165039 12.362915,-3.441803 19.207581,-3.441803c6.77063,0 13.325378,1.276764 19.207611,3.441803c5.638611,1.991821 11.977386,3.209229 18.603027,3.209229s12.939758,-1.217407 18.602966,-3.209229c5.7836,-2.165039 12.338287,-3.441803 19.207672,-3.441803c6.844666,0 13.399323,1.276764 19.182892,3.441803c5.663239,1.991821 11.977325,3.209229 18.603058,3.209229l0,22.405121z"/><path id="svg_20" fill="#003f7f" d="m452.804688,321.641113c-5.990448,0 -11.699219,-1.197601 -16.81955,-3.266144c-5.229065,-2.108154 -11.155365,-3.382416 -17.343811,-3.382416c-6.210754,0 -12.137085,1.276733 -17.36618,3.382416c-5.1203,2.068542 -10.829071,3.266144 -16.819489,3.266144s-11.721497,-1.197601 -16.81955,-3.266144c-5.315521,-2.108154 -11.241791,-3.382416 -17.366119,-3.382416c-6.188446,0 -12.114746,1.276733 -17.36615,3.382416c-5.098022,2.068542 -10.89325,3.266144 -16.819519,3.266144c-5.990479,0 -11.699219,-1.197601 -16.864166,-3.266144c-5.251373,-2.108154 -11.155396,-3.382416 -17.299225,-3.382416c-6.188385,0 -12.114716,1.276733 -17.36615,3.382416c-5.097992,2.068542 -10.893219,3.266144 -16.886429,3.266144c-5.903976,0 -11.699219,-1.197601 -16.797226,-3.266144c-5.251404,-2.108154 -11.177689,-3.382416 -17.366119,-3.382416c-6.143829,0 -12.047836,1.276733 -17.29924,3.382416c-5.184464,2.068542 -10.893219,3.266144 -16.886444,3.266144l0,-22.405151c5.990433,0 11.699188,-1.217407 16.886444,-3.209229c5.251404,-2.165039 11.155411,-3.441803 17.29924,-3.441803c6.188431,0 12.114716,1.276764 17.366119,3.441803c5.098007,1.991821 10.89325,3.209229 16.797226,3.209229c5.990433,0 11.788437,-1.217407 16.886429,-3.209229c5.251434,-2.165039 11.177765,-3.441803 17.36615,-3.441803c6.143829,0 12.047852,1.276764 17.299225,3.441803c5.164948,1.991821 10.87088,3.209229 16.864166,3.209229c5.92627,0 11.721497,-1.217407 16.819519,-3.209229c5.251404,-2.165039 11.177704,-3.441803 17.36615,-3.441803c6.12149,0 12.047791,1.276764 17.366119,3.441803c5.098053,1.991821 10.829102,3.209229 16.81955,3.209229s11.699188,-1.217407 16.819489,-3.209229c5.229095,-2.165039 11.155426,-3.441803 17.36618,-3.441803c6.188446,0 12.114746,1.276764 17.343811,3.441803c5.120331,1.991821 10.829102,3.209229 16.81955,3.209229l0,22.405151z"/><g id="svg_21"><path id="svg_22" fill="#003f7f" d="m378.025177,221.410294c14.475067,0 26.225128,-12.99028 26.225128,-28.937393s-11.752258,-28.880493 -26.225128,-28.880493c-14.508759,0 -26.243073,12.933365 -26.243073,28.880493s10.697784,28.937393 26.243073,28.937393z"/><path id="svg_23" fill="#003f7f" d="m225.258987,237.669159c2.037033,0.541901 3.952652,1.313873 5.778336,2.221985c4.110046,2.048737 8.782166,3.266113 13.541992,3.266113c4.829498,0 9.503906,-1.217377 13.613953,-3.266113c4.233704,-2.108154 9.011505,-3.441833 14.000641,-3.441833c4.953217,0 9.713013,1.333679 13.946716,3.441833c4.164001,2.048737 8.764191,3.266113 13.595947,3.266113c4.777802,0 9.449951,-1.217377 13.559998,-3.266113c4.233704,-2.108154 9.011505,-3.441833 14.000671,-3.441833c4.935181,0 9.713013,1.333679 14.000671,3.441833c4.110016,2.048737 8.730438,3.266113 13.559937,3.266113c3.512024,0 6.902557,-0.658173 10.099762,-1.759247l-43.757996,-86.908707l50.887604,-10.22644c7.46463,-1.566254 12.892212,-8.021805 12.892212,-16.296005c0,-9.125366 -6.745117,-16.432083 -14.983215,-16.432083c-0.598083,0 -1.142151,0 -1.704254,0.056915l-78.605621,15.754105c-5.515289,1.390579 -12.82254,10.283356 -8.660767,21.205093c0.22934,0.598785 0.438416,1.160461 0.667755,1.759262l20.516449,40.769684l-76.95079,46.589325z"/></g></g></g></svg>